<svg xmlns="http://www.w3.org/2000/svg" version="1.1" xmlns:xlink="http://www.w3.org/1999/xlink" xmlns:svgjs="http://svgjs.dev/svgjs" width="1440" height="560" preserveAspectRatio="none" viewBox="0 0 1440 560"><g mask="url(&quot;#SvgjsMask1009&quot;)" fill="none"><rect width="1440" height="560" x="0" y="0" fill="#0e2a47"></rect><path d="M-284.85 380.13C-114.3 379.55 43.45 250.01 385.09 251.33 726.73 252.65 860.83 634.25 1055.03 648.84" stroke="rgba(51,121,194,0.58)" stroke-width="2"></path><path d="M-75.81 402.48C95.48 401.18 253.92 234.19 588.46 234.48 923 234.77 1067.73 553.72 1252.73 562.5" stroke="rgba(51,121,194,0.58)" stroke-width="2"></path><path d="M-84.36 449.48C21.04 449.72 123.52 519.48 331.41 519.48 539.29 519.48 538.53 449.42 747.17 449.48 955.82 449.54 1053.19 588.76 1162.94 590.67" stroke="rgba(51,121,194,0.58)" stroke-width="2"></path><path d="M-109.7 79.57C34.69 84.43 185.92 288.39 420.63 309.17 655.34 329.95 593.05 561.63 685.8 585.04" stroke="rgba(51,121,194,0.58)" stroke-width="2"></path><path d="M-163.2 218.81C22.09 223.19 166.43 476.82 529.88 482.01 893.32 487.2 1044.22 656.15 1222.95 657.51" stroke="rgba(51,121,194,0.58)" stroke-width="2"></path></g><defs><mask id="SvgjsMask1009"><rect width="1440" height="560" fill="#ffffff"></rect></mask></defs></svg>